<svg
   viewBox="0 0 134.93749 134.9375"
   xmlns="http://www.w3.org/2000/svg">
  <g id="layer1"
     transform="translate(-0.26458333,-0.26458331)">
     <path
       style="fill:#000000;stroke-width:0.137729"
       d="M 64.300065,135.11026 C 44.963687,134.07606 27.265619,125.00471 15.038863,109.86082 4.6940337,97.047882 -0.64308018,80.211982 0.39125768,63.654997 1.7074733,42.58584 12.482978,23.710148 30.003692,11.782245 49.727086,-1.6452177 75.820279,-3.4790716 97.287939,7.0534466 104.02774,10.360138 109.5027,14.226928 114.83043,19.443131 c 3.21558,3.148267 5.5771,5.891322 7.94655,9.230401 10.36134,14.601485 14.44288,32.475098 11.4866,50.301261 -3.04801,18.379266 -13.79943,34.825297 -29.53367,45.176507 -11.843328,7.79148 -26.314078,11.71393 -40.429845,10.95896 z m 8.896309,-10.72174 c 15.655198,-1.49009 29.736076,-9.24886 39.550616,-21.79292 6.70321,-8.567422 10.74672,-18.912606 11.74828,-30.057514 0.19929,-2.217751 0.1989,-7.567117 -5.2e-4,-9.778284 -0.7576,-8.39153 -3.21357,-16.223527 -7.34187,-23.41279 -2.0276,-3.530994 -5.15603,-7.73765 -7.79387,-10.480096 l -1.37827,-1.432885 -4.41659,4.406307 c -2.42913,2.42347 -4.4166,4.459994 -4.4166,4.525614 0,0.06562 0.463206,0.611645 1.02934,1.213392 6.02367,6.402542 9.95719,14.623138 11.38974,23.803235 0.27482,1.761076 0.31163,2.509441 0.31163,6.335226 0,3.825785 -0.0369,4.57415 -0.31163,6.335226 -1.31219,8.408785 -4.60234,15.774666 -9.84569,22.04218 -7.991062,9.551959 -19.40396,15.239259 -31.739082,15.816269 -11.42753,0.53458 -22.059499,-3.03603 -30.749212,-10.3267 C 30.996872,94.675098 25.57683,84.943988 23.936182,74.121893 23.562216,71.655112 23.41948,66.323296 23.658901,63.764111 24.582505,53.8916 28.69733,44.665434 35.356173,37.536758 c 0.540865,-0.57903 0.983393,-1.10618 0.983393,-1.171447 0,-0.06526 -1.987101,-2.101503 -4.415788,-4.524973 l -4.415788,-4.406307 -1.128102,1.175297 c -8.677372,9.040375 -14.096105,20.969211 -15.317808,33.720739 -0.262654,2.741423 -0.262654,8.034053 0,10.775475 1.299801,13.566646 7.197876,25.867814 16.965246,35.383108 9.319622,9.07911 21.204345,14.6162 34.122425,15.89764 2.571873,0.25513 8.377361,0.2563 11.046623,0.002 z m -0.70099,-23.25794 c 5.972064,-0.89096 11.65342,-3.354104 16.390633,-7.106113 1.46012,-1.156455 4.185375,-3.910534 5.332289,-5.388669 3.785648,-4.878951 6.165394,-10.526048 7.015894,-16.648602 0.1043,-0.750818 0.18176,-2.570172 0.18176,-4.269391 0,-1.69922 -0.0775,-3.518572 -0.18176,-4.269392 C 99.784551,53.012746 93.907198,44.078593 84.95795,38.706909 77.040838,33.954752 67.239808,32.720393 58.209903,35.338217 48.975287,38.015388 40.964747,44.993679 37.00523,53.81043 29.960582,69.496943 35.6655,87.754746 50.388684,96.642314 c 3.871598,2.337065 8.806268,4.045966 13.084962,4.531396 0.719673,0.0817 1.494441,0.17439 1.721705,0.20608 0.870637,0.12143 5.986248,-0.0532 7.300033,-0.24921 z"
       id="path302" /></g></svg>
